<svg xmlns="http://www.w3.org/2000/svg" xmlns:xlink="http://www.w3.org/1999/xlink" viewBox="0,0,256,256" width="250px" height="250px"><g fill="#ffffff" fill-rule="nonzero" stroke="none" stroke-width="1" stroke-linecap="butt" stroke-linejoin="miter" stroke-miterlimit="10" stroke-dasharray="" stroke-dashoffset="0" font-family="none" font-weight="none" font-size="none" text-anchor="none" style="mix-blend-mode: normal"><g transform="scale(5.12,5.12)"><path d="M18.8125,4c-0.47656,0.08984 -0.82031,0.51172 -0.8125,1v21l-2.84375,1.0625l-9.28125,3.28125c-0.01172,0.01172 -0.01953,0.01953 -0.03125,0.03125l-1.59375,0.59375c-0.01953,0.00781 -0.04297,0.01953 -0.0625,0.03125c-2.59766,1.19141 -4.1875,2.82031 -4.1875,4.6875c0,1.48438 0.4375,2.83594 1.3125,3.84375c0.875,1.00781 2.13672,1.65625 3.65625,1.96875c3.03516,0.625 7.14844,0.03125 12.34375,-1.75c0.21484,-0.07031 0.37891,-0.14062 0.6875,-0.25v2.09375c-0.00391,0.44922 0.28906,0.84375 0.71875,0.96875l7.71875,2.3125c0.03125,0.01172 0.0625,0.02344 0.09375,0.03125c0.08984,0.04688 0.18359,0.07813 0.28125,0.09375c0.09375,0.01172 0.1875,0.01172 0.28125,0c0.01172,0 0.01953,0 0.03125,0c0.07422,-0.01172 0.14844,-0.03516 0.21875,-0.0625c0.04297,-0.00781 0.08594,-0.01953 0.125,-0.03125c0.01172,-0.01172 0.01953,-0.01953 0.03125,-0.03125l6.125,-2.125l10.8125,-3.8125c0.03125,-0.00781 0.0625,-0.01953 0.09375,-0.03125l1.21875,-0.5625c0.02734,-0.01172 0.03516,-0.01953 0.0625,-0.03125c1.32031,-0.51172 2.33203,-1.05078 3.0625,-1.71875c0.74609,-0.68359 1.19922,-1.61328 1.125,-2.5625c-0.08203,-0.96094 -0.68359,-1.77344 -1.5,-2.375c-0.81641,-0.60156 -1.875,-1.07812 -3.1875,-1.5c-3.03516,-1.04687 -6.04297,-1.35547 -8.75,-1.25c-2.55859,0.10156 -5.23828,0.5 -7.90625,1.3125l-0.0625,0.03125l-0.59375,0.15625v-16.875c0.57813,0.31641 1,0.82031 1,1.46875v11.09375c-0.00391,0.33594 0.16016,0.65234 0.4375,0.84375c0,0 0.45703,0.30469 1.21875,0.5625c0.76172,0.25781 1.88281,0.5 3.34375,0.5c2.71094,0 4.42578,-1.64453 5.1875,-3.46875c0.76172,-1.82422 0.8125,-3.83594 0.8125,-5.125c0,-6.08594 -3.67969,-10.25 -8.71875,-11.75l-12,-3.625c-0.12109,-0.03516 -0.25,-0.04297 -0.375,-0.03125c-0.03125,0 -0.0625,0 -0.09375,0zM20,6.34375l10.71875,3.21875c4.35938,1.30078 7.28125,4.53125 7.28125,9.84375c0,1.21094 -0.09375,2.99219 -0.65625,4.34375c-0.5625,1.35156 -1.35547,2.25 -3.34375,2.25c-1.23828,0 -2.12109,-0.21484 -2.6875,-0.40625c-0.23437,-0.07812 -0.19531,-0.07031 -0.3125,-0.125v-10.46875c0,-1.62891 -1.09375,-2.96094 -2.53125,-3.5c-0.01562,-0.00391 -0.01562,-0.02734 -0.03125,-0.03125c-1.17578,-0.44531 -2.4375,0.46484 -2.4375,1.71875v18.375c-0.00781,0.07422 -0.00781,0.14453 0,0.21875v4.625c-0.02734,0.13281 -0.02734,0.27344 0,0.40625v2.4375c-0.05859,0.19141 -0.05859,0.40234 0,0.59375v2.8125l-6,-1.78125v-2.53125c0.05859,-0.19141 0.05859,-0.40234 0,-0.59375v-3.1875c0.11328,-0.25781 0.11328,-0.55469 0,-0.8125v-2.0625c0.13281,-0.27734 0.13281,-0.59766 0,-0.875v-4c0.01563,-0.10547 0.01563,-0.20703 0,-0.3125zM18,28.125v2.46875c-0.47266,0.16406 -1.39844,0.5 -2.875,1.03125c-0.90625,0.32422 -1.82031,0.67578 -2.5625,0.9375c-0.74219,0.26172 -1.375,0.44922 -1.4375,0.46875c-0.01953,0.00781 -0.04297,0.01953 -0.0625,0.03125c-1.43359,0.53125 -2.35547,1.05469 -2.9375,1.65625c-0.29297,0.30078 -0.53516,0.64063 -0.59375,1.125c-0.04297,0.35938 0.25391,0.67578 0.5,0.96875l-0.125,0.09375c0,0 0.17188,0.14844 0.28125,0.25c0.08594,0.07813 0.10156,0.11719 0.21875,0.1875c0.26953,0.16797 0.65234,0.31641 1.15625,0.40625c1,0.17578 2.46484,0.05859 4.65625,-0.71875c0.01172,-0.00391 0.01953,0.00391 0.03125,0c1.26172,-0.44141 2.66406,-0.96094 3.75,-1.375v1.71875c-0.45703,0.16016 -0.93359,0.34375 -1.3125,0.46875c-5.00781,1.71875 -8.89844,2.1875 -11.3125,1.6875c-1.20703,-0.25 -2.03125,-0.70312 -2.5625,-1.3125c-0.53125,-0.60937 -0.8125,-1.41797 -0.8125,-2.53125c0,-0.53516 0.82813,-1.86719 3.03125,-2.875l1.5,-0.5625h0.03125l9.28125,-3.3125zM36.625,30.90625c2.49609,-0.09766 5.29688,0.17188 8.0625,1.125c0,0.01172 0,0.01953 0,0.03125c1.1875,0.37891 2.08984,0.78906 2.625,1.1875c0.53516,0.39844 0.66797,0.69922 0.6875,0.9375c0.02734,0.35156 -0.03906,0.54297 -0.46875,0.9375c-0.42969,0.39453 -1.26172,0.86719 -2.5,1.34375c-0.01953,0.00781 -0.04297,0.01953 -0.0625,0.03125l-1.1875,0.5625l-0.09375,0.03125l-10.71875,3.75l-4.96875,1.75v-2.40625c0.98438,-0.35547 9.04297,-3.27344 10.84375,-3.9375c1.51172,-0.55469 2.45313,-0.9375 3.09375,-1.28125c0.32031,-0.17187 0.57031,-0.32422 0.8125,-0.59375c0.24219,-0.26953 0.41406,-0.8125 0.3125,-1.21875c-0.02344,-0.10937 -0.06641,-0.21484 -0.125,-0.3125c-0.3125,-0.46875 -1,-0.78516 -1.75,-0.9375l0.03125,-0.0625c0,0 -0.13672,-0.01953 -0.1875,-0.03125c-0.09766,-0.02344 -0.17969,-0.04687 -0.375,-0.0625c-0.29297,-0.02344 -0.67969,-0.02344 -1.25,0.03125c-1.14062,0.10938 -2.92187,0.45703 -5.625,1.375c-3.01172,1.02344 -4.70312,1.61328 -5.78125,2v-2.6875l1.15625,-0.3125c0.01172,0 0.01953,0 0.03125,0c2.51172,-0.77344 5.01563,-1.15234 7.4375,-1.25zM18,32.75v0.78125c-0.78906,0.30078 -2.81641,1.05859 -4.4375,1.625c-1.79687,0.64063 -2.80859,0.6875 -3.40625,0.625c0.33984,-0.23828 0.66797,-0.48437 1.53125,-0.8125c0.03516,-0.01172 0.02734,-0.01953 0.0625,-0.03125c0.29297,-0.08594 0.75391,-0.24609 1.46875,-0.5c0.75,-0.26172 1.6875,-0.58203 2.59375,-0.90625c1.12109,-0.40234 1.52344,-0.53906 2.1875,-0.78125zM39.59375,33.78125c-0.47266,0.19141 -0.68359,0.31641 -1.4375,0.59375c-1.66797,0.61328 -8.37891,3.04297 -10.15625,3.6875v-0.75c0.62109,-0.23047 2.1875,-0.81641 6.40625,-2.25c2.59766,-0.88281 4.25391,-1.19141 5.1875,-1.28125z"></path></g></g></svg>